<mxfile host="app.diagrams.net" modified="2022-11-14T09:59:05.394Z" agent="5.0 (Macintosh; Intel Mac OS X 10_15_7) AppleWebKit/537.36 (KHTML, like Gecko) Chrome/107.0.0.0 Safari/537.36" etag="DRkl0bacZx-EOMOIZ_Rp" version="20.5.3" type="github">
  <diagram id="ksfwMc-zDeLNR8-OKq6v" name="Page-1">
    <mxGraphModel dx="1051" dy="682" grid="1" gridSize="10" guides="1" tooltips="1" connect="1" arrows="1" fold="1" page="1" pageScale="1" pageWidth="850" pageHeight="1100" math="0" shadow="0">
      <root>
        <mxCell id="0" />
        <mxCell id="1" parent="0" />
        <mxCell id="_4lsheTd0s45SyMYJtCA-1" value="call-api" style="rounded=1;whiteSpace=wrap;html=1;" vertex="1" parent="1">
          <mxGeometry x="365" y="150" width="120" height="60" as="geometry" />
        </mxCell>
        <mxCell id="_4lsheTd0s45SyMYJtCA-17" value="" style="edgeStyle=orthogonalEdgeStyle;rounded=0;orthogonalLoop=1;jettySize=auto;html=1;" edge="1" parent="1" target="_4lsheTd0s45SyMYJtCA-1">
          <mxGeometry relative="1" as="geometry">
            <mxPoint x="425" y="280" as="sourcePoint" />
          </mxGeometry>
        </mxCell>
        <mxCell id="_4lsheTd0s45SyMYJtCA-41" value="" style="edgeStyle=orthogonalEdgeStyle;rounded=0;orthogonalLoop=1;jettySize=auto;html=1;" edge="1" parent="1" source="_4lsheTd0s45SyMYJtCA-11" target="_4lsheTd0s45SyMYJtCA-40">
          <mxGeometry relative="1" as="geometry" />
        </mxCell>
        <mxCell id="_4lsheTd0s45SyMYJtCA-11" value="check token exp" style="rhombus;whiteSpace=wrap;html=1;" vertex="1" parent="1">
          <mxGeometry x="350" y="280" width="150" height="80" as="geometry" />
        </mxCell>
        <mxCell id="_4lsheTd0s45SyMYJtCA-18" value="" style="endArrow=none;html=1;rounded=0;exitX=0;exitY=0.5;exitDx=0;exitDy=0;" edge="1" parent="1" source="_4lsheTd0s45SyMYJtCA-11" target="_4lsheTd0s45SyMYJtCA-19">
          <mxGeometry width="50" height="50" relative="1" as="geometry">
            <mxPoint x="240" y="390" as="sourcePoint" />
            <mxPoint x="340" y="320" as="targetPoint" />
            <Array as="points">
              <mxPoint x="240" y="320" />
            </Array>
          </mxGeometry>
        </mxCell>
        <mxCell id="_4lsheTd0s45SyMYJtCA-19" value="is expired" style="rhombus;whiteSpace=wrap;html=1;" vertex="1" parent="1">
          <mxGeometry x="200" y="360" width="80" height="80" as="geometry" />
        </mxCell>
        <mxCell id="_4lsheTd0s45SyMYJtCA-20" value="" style="endArrow=none;html=1;rounded=0;entryX=0.5;entryY=1;entryDx=0;entryDy=0;" edge="1" parent="1" target="_4lsheTd0s45SyMYJtCA-19">
          <mxGeometry width="50" height="50" relative="1" as="geometry">
            <mxPoint x="240" y="480" as="sourcePoint" />
            <mxPoint x="450" y="470" as="targetPoint" />
          </mxGeometry>
        </mxCell>
        <mxCell id="_4lsheTd0s45SyMYJtCA-31" value="" style="edgeStyle=orthogonalEdgeStyle;rounded=0;orthogonalLoop=1;jettySize=auto;html=1;" edge="1" parent="1" source="_4lsheTd0s45SyMYJtCA-21" target="_4lsheTd0s45SyMYJtCA-30">
          <mxGeometry relative="1" as="geometry" />
        </mxCell>
        <mxCell id="_4lsheTd0s45SyMYJtCA-21" value="call api refresh token" style="rounded=1;whiteSpace=wrap;html=1;" vertex="1" parent="1">
          <mxGeometry x="180" y="480" width="120" height="60" as="geometry" />
        </mxCell>
        <mxCell id="_4lsheTd0s45SyMYJtCA-27" value="" style="edgeStyle=orthogonalEdgeStyle;rounded=0;orthogonalLoop=1;jettySize=auto;html=1;startArrow=none;" edge="1" parent="1" source="_4lsheTd0s45SyMYJtCA-28" target="_4lsheTd0s45SyMYJtCA-26">
          <mxGeometry relative="1" as="geometry">
            <Array as="points">
              <mxPoint x="90" y="510" />
            </Array>
          </mxGeometry>
        </mxCell>
        <mxCell id="_4lsheTd0s45SyMYJtCA-22" value="" style="shape=waypoint;sketch=0;size=6;pointerEvents=1;points=[];fillColor=default;resizable=0;rotatable=0;perimeter=centerPerimeter;snapToPoint=1;rounded=1;" vertex="1" parent="1">
          <mxGeometry x="160" y="490" width="40" height="40" as="geometry" />
        </mxCell>
        <mxCell id="_4lsheTd0s45SyMYJtCA-26" value="set new token , refresh-token to local" style="ellipse;whiteSpace=wrap;html=1;sketch=0;rounded=1;" vertex="1" parent="1">
          <mxGeometry y="610" width="185" height="90" as="geometry" />
        </mxCell>
        <mxCell id="_4lsheTd0s45SyMYJtCA-28" value="success" style="rhombus;whiteSpace=wrap;html=1;" vertex="1" parent="1">
          <mxGeometry x="50" y="470" width="80" height="80" as="geometry" />
        </mxCell>
        <mxCell id="_4lsheTd0s45SyMYJtCA-29" value="" style="edgeStyle=orthogonalEdgeStyle;rounded=0;orthogonalLoop=1;jettySize=auto;html=1;endArrow=none;" edge="1" parent="1" source="_4lsheTd0s45SyMYJtCA-22" target="_4lsheTd0s45SyMYJtCA-28">
          <mxGeometry relative="1" as="geometry">
            <mxPoint x="180" y="510" as="sourcePoint" />
            <mxPoint x="90" y="613.416876048223" as="targetPoint" />
            <Array as="points" />
          </mxGeometry>
        </mxCell>
        <mxCell id="_4lsheTd0s45SyMYJtCA-33" value="" style="edgeStyle=orthogonalEdgeStyle;rounded=0;orthogonalLoop=1;jettySize=auto;html=1;" edge="1" parent="1" source="_4lsheTd0s45SyMYJtCA-30" target="_4lsheTd0s45SyMYJtCA-32">
          <mxGeometry relative="1" as="geometry" />
        </mxCell>
        <mxCell id="_4lsheTd0s45SyMYJtCA-37" value="" style="edgeStyle=orthogonalEdgeStyle;rounded=0;orthogonalLoop=1;jettySize=auto;html=1;" edge="1" parent="1" source="_4lsheTd0s45SyMYJtCA-30" target="_4lsheTd0s45SyMYJtCA-36">
          <mxGeometry relative="1" as="geometry" />
        </mxCell>
        <mxCell id="_4lsheTd0s45SyMYJtCA-30" value="fail" style="rhombus;whiteSpace=wrap;html=1;rounded=1;" vertex="1" parent="1">
          <mxGeometry x="400" y="470" width="80" height="80" as="geometry" />
        </mxCell>
        <mxCell id="_4lsheTd0s45SyMYJtCA-35" value="" style="edgeStyle=orthogonalEdgeStyle;rounded=0;orthogonalLoop=1;jettySize=auto;html=1;" edge="1" parent="1" source="_4lsheTd0s45SyMYJtCA-32" target="_4lsheTd0s45SyMYJtCA-34">
          <mxGeometry relative="1" as="geometry" />
        </mxCell>
        <mxCell id="_4lsheTd0s45SyMYJtCA-32" value="error code = A012" style="rhombus;whiteSpace=wrap;html=1;rounded=1;" vertex="1" parent="1">
          <mxGeometry x="400" y="630" width="130" height="80" as="geometry" />
        </mxCell>
        <mxCell id="_4lsheTd0s45SyMYJtCA-34" value="no action, new token has set to local" style="ellipse;whiteSpace=wrap;html=1;rounded=1;" vertex="1" parent="1">
          <mxGeometry x="405" y="800" width="120" height="60" as="geometry" />
        </mxCell>
        <mxCell id="_4lsheTd0s45SyMYJtCA-39" value="" style="edgeStyle=orthogonalEdgeStyle;rounded=0;orthogonalLoop=1;jettySize=auto;html=1;" edge="1" parent="1" source="_4lsheTd0s45SyMYJtCA-36" target="_4lsheTd0s45SyMYJtCA-38">
          <mxGeometry relative="1" as="geometry" />
        </mxCell>
        <mxCell id="_4lsheTd0s45SyMYJtCA-36" value="error code != A012" style="rhombus;whiteSpace=wrap;html=1;rounded=1;" vertex="1" parent="1">
          <mxGeometry x="590" y="455" width="100" height="110" as="geometry" />
        </mxCell>
        <mxCell id="_4lsheTd0s45SyMYJtCA-38" value="logout" style="ellipse;whiteSpace=wrap;html=1;rounded=1;" vertex="1" parent="1">
          <mxGeometry x="580" y="670" width="120" height="60" as="geometry" />
        </mxCell>
        <mxCell id="_4lsheTd0s45SyMYJtCA-43" value="" style="edgeStyle=orthogonalEdgeStyle;rounded=0;orthogonalLoop=1;jettySize=auto;html=1;" edge="1" parent="1" source="_4lsheTd0s45SyMYJtCA-40" target="_4lsheTd0s45SyMYJtCA-42">
          <mxGeometry relative="1" as="geometry" />
        </mxCell>
        <mxCell id="_4lsheTd0s45SyMYJtCA-40" value="is unexpired" style="rhombus;whiteSpace=wrap;html=1;" vertex="1" parent="1">
          <mxGeometry x="615" y="280" width="80" height="80" as="geometry" />
        </mxCell>
        <mxCell id="_4lsheTd0s45SyMYJtCA-42" value="return data" style="ellipse;whiteSpace=wrap;html=1;" vertex="1" parent="1">
          <mxGeometry x="755" y="290" width="120" height="60" as="geometry" />
        </mxCell>
      </root>
    </mxGraphModel>
  </diagram>
</mxfile>
